<svg xmlns="http://www.w3.org/2000/svg" viewBox="0 0 47.5 47.5" id="coffee"><defs><clipPath id="a"><path d="M0 38h38V0H0v38Z"></path></clipPath><clipPath id="b"><path d="M0 38h38V0H0v38Z"></path></clipPath></defs><g clip-path="url(#a)" transform="matrix(1.25 0 0 -1.25 0 47.5)"><path fill="#99aab5" d="M37 11c0-5.522-8.059-10-18-10S1 5.478 1 11s8.059 10 18 10 18-4.478 18-10"></path><path fill="#ccd6dd" d="M37 13c0-5.522-8.059-10-18-10S1 7.478 1 13s8.059 10 18 10 18-4.478 18-10"></path><path fill="#f5f8fa" d="M19 6C4.042 6 2 21 2 25h34c0-2-1.958-19-17-19"></path><path fill="#ccd6dd" d="M32.882 30.048c-1.357.938-3.103 1.694-5.121 2.25 1.875.576 4.551.309 5.121-2.25m2.503-2.692c2.442 10.122-9.781 7.706-12.204 5.798-1.34.149-2.736.234-4.181.234-9.389 0-17-3.228-17-8.444C2 19.728 9.611 15.5 19 15.5s17 4.228 17 9.444c0 .862-.225 1.664-.615 2.412"></path></g><g clip-path="url(#b)" transform="matrix(1.25 0 0 -1.25 0 47.5)"><path fill="#8a4b38" d="M34 24c0-3.866-6.716-7-15-7-8.284 0-15 3.134-15 7s6.716 7 15 7c8.284 0 15-3.134 15-7"></path><path fill="#d99e82" d="M21 20a.997.997 0 0 0-.707.293c-2.337 2.337-2.376 4.885-.125 8.262.739 1.109.9 2.245.478 3.377-.461 1.235-1.438 1.996-1.731 2.076-.553 0-.958.444-.958.996 0 .553.491.996 1.043.996.997 0 2.395-1.153 3.183-2.625 1.034-1.933.91-4.039-.351-5.93-1.961-2.942-1.531-4.332-.125-5.738A.999.999 0 0 0 21 20M15 22a.997.997 0 0 0-.707.293c-2.337 2.337-2.376 4.885-.125 8.262.727 1.091.894 2.082.494 2.947-.444.961-1.431 1.469-1.684 1.499a.99.99 0 0 0-.989.999c0 .553.459 1 1.011 1 .997 0 2.584-.974 3.36-2.423.481-.899 1.053-2.761-.528-5.132-1.961-2.942-1.531-4.332-.125-5.738A.999.999 0 0 0 15 22"></path></g></svg>